<svg width="16" height="16" viewBox="0 0 16 16" fill="none" xmlns="http://www.w3.org/2000/svg">
<path fill-rule="evenodd" clip-rule="evenodd" d="M2.0259 3.97418C2.05877 3.6446 2.25376 3.05193 2.8323 3.02148H5.26473C5.46067 3.00797 5.80356 3.13529 6.07554 3.38635C6.29151 3.58571 6.75712 3.84861 7.10408 3.97418H12.6836C13.1377 3.97418 13.3648 3.97418 13.5382 4.06255C13.6908 4.14029 13.8148 4.26433 13.8926 4.41689C13.9809 4.59033 13.9809 4.81738 13.9809 5.27148V11.5147C13.9809 11.9688 13.9809 12.1959 13.8926 12.3693C13.8148 12.5219 13.6908 12.6459 13.5382 12.7236C13.3648 12.812 13.1377 12.812 12.6836 12.812H3.31878C2.86469 12.812 2.63764 12.812 2.46419 12.7236C2.31163 12.6459 2.18759 12.5219 2.10986 12.3693C2.02148 12.1959 2.02148 11.9688 2.02148 11.5147V4.035V3.97418H2.0259Z" fill="url(#paint0_linear_471_3)"/>
<path fill-rule="evenodd" clip-rule="evenodd" d="M5.64836 3.08582C5.79458 3.1482 5.95028 3.24402 6.08807 3.37121C6.30084 3.56761 6.76157 3.82826 7.10643 3.95367H12.6834C12.9096 3.95367 13.0806 3.95367 13.2166 3.96479C13.3531 3.97594 13.4562 3.99837 13.5462 4.04425C13.7026 4.12393 13.8297 4.25107 13.9094 4.40745C13.9553 4.4975 13.9777 4.60059 13.9889 4.73705C14 4.87307 14 5.04403 14 5.27026V11.5155C14 11.7417 14 11.9126 13.9889 12.0487C13.9777 12.1851 13.9553 12.2882 13.9094 12.3783C13.8297 12.5347 13.7026 12.6618 13.5462 12.7415C13.4562 12.7874 13.3531 12.8098 13.2166 12.8209C13.0806 12.832 12.9096 12.832 12.6834 12.832H3.31662C3.09038 12.832 2.91941 12.832 2.78338 12.8209C2.64692 12.8098 2.54383 12.7874 2.45378 12.7415C2.2974 12.6618 2.17026 12.5347 2.09058 12.3783C2.0447 12.2882 2.02226 12.1851 2.01111 12.0487C2 11.9126 2 11.7417 2 11.5154V3.95367H2.00647C2.0254 3.78819 2.08341 3.56396 2.20625 3.3744C2.33406 3.17715 2.53278 3.01665 2.83002 3.001L2.83055 3.00097H5.26282C5.36511 2.9941 5.50287 3.02375 5.64836 3.08582ZM2.04054 3.99421V11.5145C2.04054 11.7419 2.04056 11.9112 2.05152 12.0454C2.06246 12.1793 2.08422 12.2765 2.1267 12.3599C2.2025 12.5086 2.32343 12.6296 2.47218 12.7053C2.55557 12.7478 2.65273 12.7696 2.78668 12.7805C2.92087 12.7915 3.09018 12.7915 3.31757 12.7915H12.6824C12.9098 12.7915 13.0791 12.7915 13.2133 12.7805C13.3473 12.7696 13.4444 12.7478 13.5278 12.7053C13.6766 12.6296 13.7975 12.5086 13.8733 12.3599C13.9158 12.2765 13.9375 12.1793 13.9485 12.0454C13.9594 11.9112 13.9595 11.7419 13.9595 11.5145V5.27124C13.9595 5.04386 13.9594 4.87454 13.9485 4.74035C13.9375 4.6064 13.9158 4.50924 13.8733 4.42586C13.7975 4.27711 13.6766 4.15617 13.5278 4.08038C13.4444 4.03789 13.3473 4.01614 13.2133 4.00519C13.0791 3.99423 12.9098 3.99421 12.6824 3.99421H7.09931L7.09597 3.993C6.74727 3.8668 6.27907 3.60269 6.06058 3.401C5.92638 3.27713 5.77465 3.18377 5.63245 3.12311C5.48985 3.06227 5.35849 3.03501 5.26491 3.04147L5.26421 3.04151H2.83162C2.55061 3.05648 2.36272 3.20747 2.24027 3.39644C2.11734 3.58615 2.06107 3.81335 2.04486 3.97595L2.04304 3.99421H2.04054Z" fill="black" fill-opacity="0.2"/>
<path d="M2.02148 6.06097C2.02148 5.60687 2.02148 5.37982 2.10986 5.20638C2.18759 5.05382 2.31163 4.92978 2.46419 4.85204C2.63764 4.76367 2.86469 4.76367 3.31878 4.76367H12.6836C13.1377 4.76367 13.3648 4.76367 13.5382 4.85204C13.6908 4.92978 13.8148 5.05382 13.8926 5.20638C13.9809 5.37982 13.9809 5.60687 13.9809 6.06097V11.5339C13.9809 11.988 13.9809 12.2151 13.8926 12.3885C13.8148 12.5411 13.6908 12.6651 13.5382 12.7429C13.3648 12.8312 13.1377 12.8312 12.6836 12.8312H3.31878C2.86468 12.8312 2.63764 12.8312 2.46419 12.7429C2.31163 12.6651 2.18759 12.5411 2.10986 12.3885C2.02148 12.2151 2.02148 11.988 2.02148 11.5339V6.06097Z" fill="url(#paint1_linear_471_3)"/>
<path fill-rule="evenodd" clip-rule="evenodd" d="M12.6836 4.88529H3.31878C3.08973 4.88529 2.92525 4.88539 2.79615 4.89594C2.66846 4.90637 2.58613 4.92642 2.51941 4.96041C2.38973 5.02649 2.2843 5.13192 2.21822 5.2616C2.18423 5.32832 2.16418 5.41065 2.15375 5.53833C2.1432 5.66744 2.14311 5.83191 2.14311 6.06097V11.5339C2.14311 11.763 2.1432 11.9275 2.15375 12.0566C2.16418 12.1843 2.18423 12.2666 2.21822 12.3333C2.2843 12.463 2.38973 12.5684 2.51941 12.6345C2.58613 12.6685 2.66846 12.6885 2.79615 12.699C2.92525 12.7095 3.08973 12.7096 3.31878 12.7096H12.6836C12.9127 12.7096 13.0772 12.7095 13.2063 12.699C13.334 12.6885 13.4163 12.6685 13.483 12.6345C13.6127 12.5684 13.7181 12.463 13.7842 12.3333C13.8182 12.2666 13.8382 12.1843 13.8487 12.0566C13.8592 11.9275 13.8593 11.763 13.8593 11.5339V6.06097C13.8593 5.83191 13.8592 5.66744 13.8487 5.53833C13.8382 5.41065 13.8182 5.32832 13.7842 5.2616C13.7181 5.13192 13.6127 5.02649 13.483 4.96041C13.4163 4.92642 13.334 4.90637 13.2063 4.89594C13.0772 4.88539 12.9127 4.88529 12.6836 4.88529ZM2.10986 5.20638C2.02148 5.37982 2.02148 5.60687 2.02148 6.06097V11.5339C2.02148 11.988 2.02148 12.2151 2.10986 12.3885C2.18759 12.5411 2.31163 12.6651 2.46419 12.7429C2.63764 12.8312 2.86469 12.8312 3.31878 12.8312H12.6836C13.1377 12.8312 13.3648 12.8312 13.5382 12.7429C13.6908 12.6651 13.8148 12.5411 13.8926 12.3885C13.9809 12.2151 13.9809 11.988 13.9809 11.5339V6.06097C13.9809 5.60687 13.9809 5.37982 13.8926 5.20638C13.8148 5.05382 13.6908 4.92978 13.5382 4.85204C13.3648 4.76367 13.1377 4.76367 12.6836 4.76367H3.31878C2.86469 4.76367 2.63764 4.76367 2.46419 4.85204C2.31163 4.92978 2.18759 5.05382 2.10986 5.20638Z" fill="url(#paint2_linear_471_3)" fill-opacity="0.1"/>
<defs>
<linearGradient id="paint0_linear_471_3" x1="8.00121" y1="3.02051" x2="8.00121" y2="12.812" gradientUnits="userSpaceOnUse">
<stop stop-color="#3F90C0"/>
<stop offset="0.019904" stop-color="#3F9FD3"/>
<stop offset="0.119018" stop-color="#3093CF"/>
<stop offset="0.166598" stop-color="#2C82CB"/>
</linearGradient>
<linearGradient id="paint1_linear_471_3" x1="8.00121" y1="4.76367" x2="8.00121" y2="12.8312" gradientUnits="userSpaceOnUse">
<stop stop-color="#66B3E6"/>
<stop offset="0.0288158" stop-color="#70CDF9"/>
<stop offset="0.158397" stop-color="#76D1FE"/>
<stop offset="0.48" stop-color="#75D0FD"/>
<stop offset="0.83" stop-color="#74CFFC"/>
<stop offset="0.93" stop-color="#64BFEC"/>
<stop offset="1" stop-color="#52B7E8"/>
</linearGradient>
<linearGradient id="paint2_linear_471_3" x1="8.00121" y1="4.76367" x2="8.00121" y2="12.8312" gradientUnits="userSpaceOnUse">
<stop stop-color="white"/>
<stop offset="1" stop-color="#666666"/>
</linearGradient>
</defs>
</svg>
